<svg xmlns="http://www.w3.org/2000/svg" width="800" height="600" viewBox="0 0 800 600" fill="none">
  <rect width="800" height="600" fill="#F5F5F5"/>
  <rect x="200" y="200" width="400" height="200" rx="8" fill="#E2E8F0"/>
  <path d="M400 175C389.458 175 379.167 178.29 370.833 184.417C362.5 190.545 356.548 199.226 353.948 209.115C351.349 219.003 352.239 229.568 356.488 239.024C360.737 248.481 368.12 256.258 377.5 261C386.88 256.258 394.263 248.481 398.512 239.024C402.761 229.568 403.651 219.003 401.052 209.115C398.452 199.226 392.5 190.545 384.167 184.417C375.833 178.29 365.542 175 355 175" stroke="#CBD5E0" stroke-width="2" stroke-linecap="round"/>
  <path d="M400 425C410.542 425 420.833 421.71 429.167 415.583C437.5 409.455 443.452 400.774 446.052 390.885C448.651 380.997 447.761 370.432 443.512 360.976C439.263 351.519 431.88 343.742 422.5 339C413.12 343.742 405.737 351.519 401.488 360.976C397.239 370.432 396.349 380.997 398.948 390.885C401.548 400.774 407.5 409.455 415.833 415.583C424.167 421.71 434.458 425 445 425" stroke="#CBD5E0" stroke-width="2" stroke-linecap="round"/>
  <text x="400" y="320" font-family="sans-serif" font-size="24" text-anchor="middle" fill="#718096">Placeholder Image</text>
</svg>
